<svg xmlns="http://www.w3.org/2000/svg" viewBox="0 0 410 404"><path d="M399.641 59.525L214.465 389.37a20.473 20.473 0 01-35.956.366L7.348 59.526c-4.582-7.682.997-17.39 9.804-17.39h374.684c8.807 0 14.386 9.708 9.805 17.39z" fill="#646CFF"/><path d="M292.965 63.889L201.726 63.96 179.015 109.214l81.336-.328-47.386 93.372 71.182-.236-96.252 179.07 15.464-201.204-75.526.354-3.076 2.357-65.747 120.997a12.188 12.188 0 0010.708 17.96h212.47a12.188 12.188 0 0010.677-17.99L292.965 63.89z" fill="#FFF"/></svg>
